<svg id="Capa_1" enable-background="new 0 0 512 512" height="512" viewBox="0 0 512 512" width="512" xmlns="http://www.w3.org/2000/svg"><g><path d="m115.953.002c-63.827.469-115.48 52.122-115.95 115.95-.475 64.626 52.365 116.95 116.828 117.691l13.888-122.888-13.888-110.748c-.293 0-.584-.007-.878-.005z" fill="#d5e7ff"/><g><path d="m116.831.007v233.636c.462.005.922.017 1.384.017 30.099 0 59.262 10.46 82.5 29.589l32.946 27.122v-145.084-27.073c.001-64.797-52.148-118.199-116.83-118.207z" fill="#d5e7ff"/></g><g><g><path d="m269.385 293.231v50.265c-20.301 1.228-36.387 18.073-36.387 38.683 0 20.853 16.468 37.853 37.107 38.721 5.956 51.283 49.513 91.098 102.394 91.098l12.143-218.768h-115.257z" fill="#f6dccd"/></g><g><g><g><path d="m475.613 343.496v-50.265h-103.114v218.768c52.881 0 96.438-39.815 102.394-91.098 20.639-.869 37.107-17.869 37.107-38.721 0-20.61-16.087-37.455-36.387-38.684z" fill="#f1cbbc"/></g></g><g><g><path d="m357.938 416.876h-30c0 24.571 19.99 44.561 44.561 44.561l7.379-15.057-7.379-14.943c-8.029 0-14.561-6.532-14.561-14.561z" fill="#de9180"/></g><g><path d="m387.06 416.876c0 8.029-6.532 14.561-14.561 14.561v30c24.571 0 44.561-19.99 44.561-44.561z" fill="#d27f6c"/></g></g></g><g><g><path d="m350.361 215.511h-19.288c-34.069 0-61.687 27.618-61.687 61.687v28.568h110.896l-7.782-90.255z" fill="#a45d4e"/></g><g><path d="m372.499 215.511v90.255h65.713c34.069 0 61.687-27.618 61.687-61.687v-28.568z" fill="#8f5041"/></g></g></g><g><g><g><path d="m97.776 124.606h-30c0 27.049 22.006 49.055 49.055 49.055l4.04-15.243-4.04-14.757c-10.507 0-19.055-8.548-19.055-19.055z" fill="#6b66d0"/><path d="m135.886 124.606c0 10.507-8.548 19.055-19.055 19.055v30c27.049 0 49.055-22.006 49.055-49.055z" fill="#524798"/></g><g><path d="m67.776 69.942h30v30h-30z" fill="#6b66d0"/></g><g><path d="m135.886 69.942h30v30h-30z" fill="#524798"/></g></g></g></g></svg>